<svg xmlns="http://www.w3.org/2000/svg" width="1200" height="675" viewBox="0 0 1200 675" role="img" aria-labelledby="title desc">
  <title id="title">Part 2 - Lessons and secrets</title>
  <desc id="desc">A child-friendly fantasy classroom where students practise safe glowing spells.</desc>
  <defs>
    <linearGradient id="wall" x1="0" y1="0" x2="1" y2="1"><stop offset="0" stop-color="#78350f"/><stop offset="1" stop-color="#1f2937"/></linearGradient>
    <radialGradient id="glow" cx="50%" cy="50%" r="50%"><stop offset="0" stop-color="#fef3c7"/><stop offset="1" stop-color="#f59e0b" stop-opacity="0"/></radialGradient>
  </defs>
  <rect width="1200" height="675" fill="url(#wall)"/>
  <rect x="80" y="120" width="1040" height="440" rx="30" fill="#111827" opacity="0.55"/>
  <g fill="#6b7280" opacity="0.65">
    <rect x="120" y="155" width="140" height="80" rx="10"/><rect x="290" y="155" width="140" height="80" rx="10"/><rect x="460" y="155" width="140" height="80" rx="10"/><rect x="630" y="155" width="140" height="80" rx="10"/><rect x="800" y="155" width="140" height="80" rx="10"/>
  </g>
  <ellipse cx="600" cy="360" rx="410" ry="165" fill="url(#glow)" opacity="0.95"/>
  <g transform="translate(230 365)">
    <circle cx="0" cy="-70" r="28" fill="#fcd34d"/><path d="M-28 -35 Q0 25 35 -35" fill="#2563eb"/><line x1="20" y1="-30" x2="105" y2="-95" stroke="#92400e" stroke-width="8" stroke-linecap="round"/><circle cx="110" cy="-100" r="18" fill="#fde68a" opacity="0.9"/>
  </g>
  <g transform="translate(505 405)">
    <circle cx="0" cy="-70" r="28" fill="#fcd34d"/><path d="M-28 -35 Q0 25 35 -35" fill="#7c3aed"/><line x1="25" y1="-35" x2="110" y2="-80" stroke="#92400e" stroke-width="8" stroke-linecap="round"/><circle cx="115" cy="-83" r="18" fill="#fde68a" opacity="0.9"/>
  </g>
  <g transform="translate(780 365)">
    <circle cx="0" cy="-70" r="28" fill="#fcd34d"/><path d="M-28 -35 Q0 25 35 -35" fill="#059669"/><line x1="-25" y1="-35" x2="-110" y2="-90" stroke="#92400e" stroke-width="8" stroke-linecap="round"/><circle cx="-116" cy="-94" r="18" fill="#fde68a" opacity="0.9"/>
  </g>
  <g fill="#f3f4f6" opacity="0.95"><rect x="170" y="520" width="110" height="18" rx="5"/><rect x="480" y="540" width="150" height="18" rx="5"/><rect x="775" y="515" width="135" height="18" rx="5"/></g>
  <text x="60" y="80" font-family="Arial, sans-serif" font-size="42" font-weight="700" fill="#ffffff">Part 2: Lessons and Secrets</text>
  <text x="60" y="128" font-family="Arial, sans-serif" font-size="24" fill="#fde68a">A hidden room, real practice, and strange dreams</text>
</svg>
